<?xml version="1.0" encoding="iso-8859-1"?>
<!-- Generator: Adobe Illustrator 17.1.0, SVG Export Plug-In . SVG Version: 6.00 Build 0)  -->
<!DOCTYPE svg PUBLIC "-//W3C//DTD SVG 1.1//EN" "http://www.w3.org/Graphics/SVG/1.1/DTD/svg11.dtd">
<svg version="1.1" id="Capa_1" xmlns="http://www.w3.org/2000/svg" xmlns:xlink="http://www.w3.org/1999/xlink" x="0px" y="0px"
	 viewBox="0 0 200.833 200.833" style="enable-background:new 0 0 200.833 200.833;" xml:space="preserve">
<path d="M100.417,176.917c-35.911,0-66.93-25.021-74.659-59.833H3c-1.657,0-3-1.343-3-3v-27.5c0-1.657,1.343-3,3-3h22.795
	c7.788-34.723,38.778-59.667,74.622-59.667s66.834,24.943,74.622,59.667h22.795c1.657,0,3,1.343,3,3v27.5c0,1.657-1.343,3-3,3
	h-22.757C167.347,151.895,136.328,176.917,100.417,176.917z M31.937,117.167c7.626,31.357,35.863,53.75,68.48,53.75
	c32.618,0,60.854-22.393,68.48-53.75h-21.273c-7.072,20.03-25.769,33.332-47.208,33.332c-21.438,0-40.135-13.302-47.207-33.332
	H31.937z M59.593,117.083c6.71,16.552,22.648,27.415,40.823,27.415s34.113-10.863,40.824-27.415H59.593z M6,111.083h188.833v-21.5
	h-21.547c-0.218,0.055-0.444,0.083-0.673,0.083h-27.16c-0.241,0-0.477-0.029-0.704-0.083H56.058
	c-0.219,0.055-0.446,0.083-0.677,0.083H28.22c-0.239,0-0.475-0.028-0.703-0.083H6V111.083z M147.594,83.583h21.282
	c-7.656-31.307-35.884-53.667-68.46-53.667s-60.803,22.36-68.459,53.667h21.282c7.096-19.98,25.782-33.249,47.177-33.249
	C121.813,50.335,140.498,63.603,147.594,83.583z M59.662,83.583h81.51c-6.752-16.457-22.651-27.249-40.755-27.249
	C82.313,56.335,66.414,67.127,59.662,83.583z"/>
<g>
</g>
<g>
</g>
<g>
</g>
<g>
</g>
<g>
</g>
<g>
</g>
<g>
</g>
<g>
</g>
<g>
</g>
<g>
</g>
<g>
</g>
<g>
</g>
<g>
</g>
<g>
</g>
<g>
</g>
</svg>
